<svg width="32" height="32" viewBox="0 0 32 32" fill="none" xmlns="http://www.w3.org/2000/svg">
<rect width="32" height="32" rx="8" fill="#03042A"/>
<path d="M6.74613 15H9.47561C9.57489 15 9.67322 14.9804 9.7649 14.9424C9.85663 14.9044 9.93995 14.8487 10.0101 14.7785C10.0803 14.7083 10.136 14.6249 10.1739 14.5332C10.2118 14.4415 10.2313 14.3432 10.2312 14.244V12.402C10.2312 12.117 10.2873 11.8347 10.3965 11.5715C10.5056 11.3082 10.6657 11.069 10.8673 10.8676C11.2742 10.4608 11.826 10.2323 12.4014 10.2323H14.2391C14.4409 10.2323 14.6344 10.1521 14.7771 10.0094C14.9198 9.86673 15 9.67325 15 9.47143V6.75811C15 6.55706 14.9202 6.36423 14.7779 6.22205C14.6357 6.07987 14.4429 6 14.2418 6H11.5346C11.4338 5.99989 11.3339 6.01968 11.2408 6.05817C11.1477 6.09666 11.063 6.15314 10.9917 6.22439C10.9204 6.29559 10.8639 6.38015 10.8253 6.47326C10.7867 6.56632 10.7668 6.66609 10.7668 6.76684V8.59736C10.7669 8.88232 10.7108 9.16444 10.6017 9.42776C10.4927 9.69102 10.3328 9.93024 10.1313 10.1317C9.92982 10.3332 9.69056 10.4931 9.42719 10.6021C9.16388 10.7111 8.88163 10.7672 8.59658 10.7671H6.76638C6.56305 10.7672 6.36814 10.8481 6.22446 10.9919C6.08073 11.1357 6 11.3307 6 11.534V14.2514C6 14.4494 6.07853 14.6394 6.21841 14.7798C6.35824 14.9201 6.54803 14.9993 6.74613 15Z" fill="white"/>
<path d="M17.7461 26H20.4756C20.5749 26 20.6732 25.9804 20.7649 25.9424C20.8566 25.9044 20.9399 25.8487 21.0101 25.7785C21.0803 25.7083 21.136 25.6249 21.1739 25.5332C21.2118 25.4415 21.2313 25.3432 21.2312 25.244V23.402C21.2312 23.117 21.2873 22.8347 21.3965 22.5715C21.5056 22.3082 21.6657 22.069 21.8673 21.8676C22.2742 21.4608 22.826 21.2323 23.4014 21.2323H25.2391C25.4409 21.2323 25.6344 21.1521 25.7771 21.0094C25.9198 20.8667 26 20.6732 26 20.4714V17.7581C26 17.5571 25.9202 17.3642 25.7779 17.222C25.6357 17.0799 25.4429 17 25.2418 17H22.5346C22.4338 16.9999 22.3339 17.0197 22.2408 17.0582C22.1477 17.0967 22.063 17.1531 21.9917 17.2244C21.9204 17.2956 21.8639 17.3801 21.8253 17.4733C21.7867 17.5663 21.7668 17.6661 21.7668 17.7668V19.5974C21.7669 19.8823 21.7108 20.1644 21.6017 20.4278C21.4927 20.691 21.3328 20.9302 21.1313 21.1317C20.9298 21.3332 20.6906 21.4931 20.4272 21.6021C20.1639 21.7111 19.8816 21.7672 19.5966 21.7671H17.7664C17.5631 21.7672 17.3681 21.8481 17.2245 21.9919C17.0807 22.1357 17 22.3307 17 22.534V25.2514C17 25.4494 17.0785 25.6394 17.2184 25.7798C17.3582 25.9201 17.548 25.9993 17.7461 26Z" fill="white"/>
<path d="M17 6.74613L17 9.47561C17 9.57489 17.0196 9.67322 17.0576 9.7649C17.0956 9.85663 17.1513 9.93995 17.2215 10.0101C17.2917 10.0803 17.3751 10.136 17.4668 10.1739C17.5585 10.2118 17.6568 10.2313 17.756 10.2312L19.598 10.2312C19.883 10.2312 20.1653 10.2873 20.4285 10.3965C20.6918 10.5056 20.931 10.6657 21.1324 10.8673C21.5392 11.2742 21.7677 11.826 21.7677 12.4014L21.7677 14.2391C21.7677 14.4409 21.8479 14.6344 21.9906 14.7771C22.1333 14.9198 22.3268 15 22.5286 15L25.2419 15C25.4429 15 25.6358 14.9202 25.778 14.7779C25.9201 14.6357 26 14.4429 26 14.2418L26 11.5346C26.0001 11.4338 25.9803 11.3339 25.9418 11.2408C25.9033 11.1477 25.8469 11.063 25.7756 10.9917C25.7044 10.9204 25.6199 10.8639 25.5267 10.8253C25.4337 10.7867 25.3339 10.7668 25.2332 10.7668L23.4026 10.7668C23.1177 10.7669 22.8356 10.7108 22.5722 10.6017C22.309 10.4927 22.0698 10.3328 21.8683 10.1313C21.6668 9.92982 21.5069 9.69056 21.3979 9.42719C21.2889 9.16388 21.2328 8.88163 21.2329 8.59658L21.2329 6.76638C21.2328 6.56305 21.1519 6.36814 21.0081 6.22446C20.8643 6.08073 20.6693 6 20.466 6L17.7486 6C17.5506 6 17.3606 6.07853 17.2202 6.21841C17.0799 6.35824 17.0007 6.54803 17 6.74613Z" fill="white"/>
<path d="M6 17.7461L6 20.4756C6 20.5749 6.01957 20.6732 6.05757 20.7649C6.09557 20.8566 6.15128 20.9399 6.2215 21.0101C6.29172 21.0803 6.37508 21.136 6.46678 21.1739C6.55853 21.2118 6.65682 21.2313 6.75604 21.2312L8.59801 21.2312C8.88302 21.2312 9.16526 21.2873 9.42852 21.3965C9.69184 21.5056 9.93101 21.6657 10.1324 21.8673C10.5392 22.2742 10.7677 22.826 10.7677 23.4014L10.7677 25.2391C10.7677 25.4409 10.8479 25.6344 10.9906 25.7771C11.1333 25.9198 11.3268 26 11.5286 26L14.2419 26C14.4429 26 14.6358 25.9202 14.778 25.7779C14.9201 25.6357 15 25.4429 15 25.2418L15 22.5346C15.0001 22.4338 14.9803 22.3339 14.9418 22.2408C14.9033 22.1477 14.8469 22.063 14.7756 21.9917C14.7044 21.9204 14.6199 21.8639 14.5267 21.8253C14.4337 21.7867 14.3339 21.7668 14.2332 21.7668L12.4026 21.7668C12.1177 21.7669 11.8356 21.7108 11.5722 21.6017C11.309 21.4927 11.0698 21.3328 10.8683 21.1313C10.6668 20.9298 10.5069 20.6906 10.3979 20.4272C10.2889 20.1639 10.2328 19.8816 10.2329 19.5966L10.2329 17.7664C10.2328 17.5631 10.1519 17.3681 10.0081 17.2245C9.86428 17.0807 9.66932 17 9.46603 17L6.74863 17C6.55057 17 6.36058 17.0785 6.22025 17.2184C6.07992 17.3582 6.00071 17.548 6 17.7461Z" fill="white"/>
<path d="M17.7117 13H14.2883C13.5768 13 13 13.5768 13 14.2883V17.7117C13 18.4232 13.5768 19 14.2883 19H17.7117C18.4232 19 19 18.4232 19 17.7117V14.2883C19 13.5768 18.4232 13 17.7117 13Z" fill="white"/>
</svg>
