<svg width="156" height="33" viewBox="0 0 156 33" fill="none" xmlns="http://www.w3.org/2000/svg">
<g clip-path="url(#clip0_8_113)">
<path fill-rule="evenodd" clip-rule="evenodd" d="M46.9335 14.5074L50.8537 15.3321C55.2008 16.229 57.3133 18.4613 57.3133 22.157C57.3133 24.138 56.5723 25.8247 55.1694 27.0357C53.6187 28.3757 51.3818 29.0551 48.5237 29.0551C39.9795 29.0551 38.6999 24.1694 38.6999 21.2612V20.3853H42.9296V21.0553C42.9296 23.5947 43.8671 25.0663 48.6609 25.0663C52.2868 25.0663 53.0162 24.0054 53.0162 22.2942C53.0162 20.141 52.1146 19.6315 49.0157 18.9999L45.0932 18.2089C40.8392 17.3946 38.7686 15.2297 38.7686 11.5922C38.7686 8.42701 41.0986 4.729 47.6629 4.729C50.728 4.729 53.0988 5.53165 54.7099 7.11369C56.1209 8.50262 56.8666 10.4325 56.8666 12.6973V13.3953H52.637V12.7264C52.637 10.3185 51.7738 8.7155 47.5593 8.7155C43.6007 8.7155 43.0668 10.0823 43.0668 11.4189C43.0668 13.2673 43.7531 13.8094 46.9335 14.5074ZM63.404 13.251C64.4289 11.5864 66.382 10.6802 68.9981 10.6802C73.8606 10.6802 76.7559 14.1211 76.7547 19.8792C76.7547 25.6211 73.9443 29.048 69.2378 29.048C66.8182 29.048 64.8197 28.164 63.7135 26.6436V33.9605H59.449V11.0245H63.404V13.251ZM68.1036 25.3058C71.2781 25.3058 72.4577 23.839 72.4577 19.8839C72.4577 17.8086 72.1343 16.4499 71.441 15.6077C70.7791 14.8028 69.7159 14.4282 68.1036 14.4282C65.1501 14.4282 63.7146 15.7054 63.7146 18.3356V21.3985C63.7146 24.0263 65.1501 25.3058 68.1036 25.3058ZM83.1912 10.9224H78.8929V28.7098H83.1912V10.9224ZM83.1574 8.44864H78.8964L78.8603 5.43348C78.8604 5.34047 78.8922 5.25027 78.9506 5.17789C79.0091 5.1055 79.0905 5.05531 79.1814 5.03564H83.1574V8.44864ZM99.635 12.6616C98.2007 11.3658 96.2336 10.6841 93.9466 10.6841C91.263 10.6841 89.0237 11.5658 87.4707 13.2328C85.9585 14.8613 85.1559 17.1599 85.1559 19.8878C85.1559 22.6156 85.9364 24.9038 87.4126 26.5265C88.9388 28.2039 91.1501 29.0857 93.8105 29.0857C98.5403 29.0857 101.844 26.1356 101.844 21.9119V21.3116H97.5795V21.8095C97.5795 24.136 96.4162 25.1318 93.7058 25.1318C90.7023 25.1318 89.4204 23.5614 89.4204 19.882C89.4204 16.1782 90.7 14.5984 93.7058 14.5984C96.4209 14.5984 97.5795 15.6023 97.5795 17.9545V18.4523H101.843V17.8521C101.843 15.7617 101.081 13.9645 99.635 12.6616ZM115.817 22.3802H120.082V22.984C120.082 24.7975 119.313 26.333 117.857 27.4241C116.434 28.4885 114.443 29.0527 112.117 29.0527C106.661 29.0527 103.532 25.6979 103.532 19.849C103.532 14.2793 106.888 10.6802 112.082 10.6802C117.024 10.6802 120.219 13.7116 120.219 18.4042C120.219 19.6105 120.04 20.7715 119.948 21.0355H107.607C107.811 24.0437 109.06 25.1674 112.15 25.1674C115.817 25.1674 115.817 23.4958 115.817 22.9467V22.3802ZM112.013 14.3933C109.256 14.3933 107.941 15.4681 107.653 17.9761L116.1 17.9785C116.11 16.8443 115.838 16.0009 115.27 15.4193C114.613 14.7423 113.517 14.3933 112.013 14.3933ZM135.078 5.03564L125.858 28.708H130.272L132.627 22.6811H143.075L145.43 28.708H149.982L140.761 5.03564H135.078ZM134.125 18.8563L136.427 13.04L137.869 8.96863L139.281 13.04L141.58 18.8563H134.125ZM151.632 5.0376H155.838V28.7099H151.632V5.0376Z" fill="#03042A"/>
<path d="M30.1981 8.74773H27.2406C26.7802 8.74798 26.3243 8.65661 25.8989 8.47886C25.4735 8.30111 25.087 8.04046 24.7615 7.71183C24.436 7.38327 24.1778 6.99321 24.0017 6.56395C23.8256 6.13469 23.735 5.67463 23.735 5.21002V2.22435C23.735 2.0602 23.703 1.89766 23.6407 1.74603C23.5784 1.59439 23.4871 1.45663 23.3721 1.34061C23.257 1.22459 23.1204 1.13259 22.9701 1.06987C22.8198 1.00716 22.6587 0.974954 22.496 0.975098H18.1056C17.9468 0.974954 17.7896 1.00639 17.6429 1.06763C17.4963 1.12887 17.363 1.2187 17.2507 1.33198C17.1385 1.44525 17.0495 1.57975 16.9888 1.72778C16.9281 1.87581 16.8969 2.03446 16.8971 2.19466V6.64291C16.8969 6.80475 16.9284 6.96503 16.9897 7.11459C17.0509 7.26415 17.1408 7.40006 17.2542 7.51455C17.3675 7.62903 17.5021 7.71985 17.6503 7.78182C17.7984 7.84378 17.9572 7.87568 18.1176 7.87568H21.0936C22.0233 7.87566 22.9151 8.24827 23.5727 8.91158C24.23 9.57521 24.5992 10.4751 24.5992 11.4134V14.4079C24.5992 14.7371 24.7288 15.0529 24.9595 15.2858C25.1902 15.5186 25.5032 15.6494 25.8295 15.6494H30.2123C30.5372 15.6491 30.8488 15.5186 31.0784 15.2867C31.3081 15.0547 31.4371 14.7402 31.4371 14.4123V10.0025C31.4375 9.83796 31.4058 9.67496 31.3438 9.52282C31.2817 9.37068 31.1905 9.23237 31.0754 9.11583C30.9604 8.99929 30.8236 8.90679 30.6731 8.84363C30.5225 8.78047 30.3611 8.74787 30.1981 8.74773Z" fill="#03042A"/>
<path d="M30.2275 18.0303H25.8197C25.4957 18.0303 25.185 18.1601 24.9559 18.3913C24.7268 18.6225 24.5981 18.9361 24.5981 19.263V22.2663C24.5979 23.2045 24.2287 24.1043 23.5716 24.7681C22.914 25.4314 22.0223 25.804 21.0925 25.804H18.1317C17.8057 25.804 17.4931 25.9347 17.2626 26.1673C17.032 26.3999 16.9025 26.7155 16.9025 27.0444V31.4685C16.9025 31.7963 17.0316 32.1107 17.2613 32.3425C17.491 32.5743 17.8025 32.7046 18.1274 32.7046H22.4906C22.6534 32.7046 22.8147 32.6722 22.9651 32.6093C23.1156 32.5464 23.2523 32.4542 23.3675 32.338C23.4826 32.2218 23.574 32.0839 23.6363 31.932C23.6986 31.7802 23.7307 31.6175 23.7307 31.4531V28.4686C23.7309 27.5303 24.1001 26.6305 24.7572 25.9667C25.4148 25.3034 26.3065 24.9308 27.2363 24.9308H30.1948C30.5232 24.9308 30.838 24.7992 31.0702 24.5649C31.3023 24.3307 31.4328 24.0129 31.4328 23.6816V19.2498C31.4328 18.9269 31.3059 18.6172 31.0799 18.3886C30.854 18.16 30.5475 18.0311 30.2275 18.0303Z" fill="#03042A"/>
<path d="M13.3196 25.7996H10.3436C9.41411 25.7996 8.52275 25.4269 7.86555 24.7637C7.53984 24.4352 7.28145 24.0452 7.10513 23.6159C6.92881 23.1867 6.83802 22.7266 6.83794 22.2619V19.2663C6.83794 18.9373 6.70844 18.6218 6.47792 18.3892C6.2474 18.1565 5.93475 18.0258 5.60875 18.0258H1.22484C1.06399 18.0258 0.904712 18.0578 0.756108 18.1199C0.607504 18.1821 0.472482 18.2731 0.358746 18.3879C0.245009 18.5027 0.154789 18.6389 0.0932348 18.7889C0.031681 18.9389 0 19.0996 0 19.2619V23.675C0 23.8393 0.0320716 24.0021 0.0943921 24.1539C0.156713 24.3057 0.248062 24.4437 0.363215 24.5599C0.478369 24.6761 0.615071 24.7683 0.765526 24.8312C0.915981 24.8941 1.07724 24.9264 1.24009 24.9264H4.19757C5.1273 24.9267 6.01893 25.2992 6.67667 25.9623C7.33376 26.6261 7.70296 27.5259 7.70318 28.4641V31.4465C7.70347 31.7778 7.83399 32.0953 8.06608 32.3295C8.29817 32.5638 8.61287 32.6955 8.9411 32.6958H13.337C13.6574 32.6955 13.9646 32.5669 14.1912 32.3382C14.4178 32.1096 14.5452 31.7996 14.5455 31.4762V27.0269C14.544 26.7001 14.4141 26.3873 14.1842 26.1572C13.9544 25.927 13.6433 25.7984 13.3196 25.7996Z" fill="#03042A"/>
<path d="M1.20837 15.6494H5.61735C5.77772 15.6494 5.93651 15.6175 6.08466 15.5555C6.23281 15.4936 6.3674 15.4028 6.48074 15.2883C6.59409 15.1738 6.68397 15.0379 6.74524 14.8883C6.80652 14.7388 6.83797 14.5785 6.83783 14.4167V11.4134C6.83778 10.9487 6.92852 10.4885 7.10484 10.0593C7.28117 9.62997 7.53963 9.23998 7.86543 8.91158C8.52263 8.24833 9.41399 7.87571 10.3434 7.87568H13.3118C13.6378 7.87568 13.9505 7.74499 14.181 7.51236C14.4115 7.27973 14.541 6.96421 14.541 6.63522V2.21115C14.541 1.88333 14.412 1.56894 14.1823 1.33713C13.9526 1.10532 13.641 0.975098 13.3162 0.975098H8.94316C8.78036 0.974954 8.61912 1.00718 8.46867 1.06995C8.31822 1.13272 8.18152 1.22481 8.06635 1.34093C7.95118 1.45705 7.85982 1.59494 7.79748 1.74671C7.73515 1.89848 7.70307 2.06116 7.70307 2.22545V5.21002C7.70313 5.67463 7.61251 6.13469 7.43638 6.56395C7.26026 6.99321 7.00206 7.38327 6.67655 7.71183C6.35101 8.04037 5.96451 8.30095 5.53914 8.4787C5.11376 8.65644 4.65785 8.74786 4.19746 8.74773H1.24107C0.912651 8.74802 0.597787 8.87988 0.365665 9.11434C0.133542 9.34879 0.00315457 9.66666 0.0031547 9.99808V14.4288C0.00315262 14.7517 0.129989 15.0615 0.355888 15.2903C0.581786 15.5191 0.888325 15.6482 1.20837 15.6494Z" fill="#03042A"/>
<path d="M18.6817 11.9751H13.0279C11.8528 11.9751 10.9002 12.9364 10.9002 14.1223V19.8279C10.9002 21.0138 11.8528 21.9751 13.0279 21.9751H18.6817C19.8568 21.9751 20.8094 21.0138 20.8094 19.8279V14.1223C20.8094 12.9364 19.8568 11.9751 18.6817 11.9751Z" fill="#03042A"/>
</g>
<defs>
<clipPath id="clip0_8_113">
<rect width="156" height="32" fill="white" transform="translate(0 0.975098)"/>
</clipPath>
</defs>
</svg>
